<svg width="60" height="60" viewBox="0 0 60 60" xmlns="http://www.w3.org/2000/svg">
  <defs>
    <pattern id="turkish-pattern" x="0" y="0" width="60" height="60" patternUnits="userSpaceOnUse">
      <path d="M30 10L40 20L30 30L20 20Z" fill="#DC2626" fill-opacity="0.1"/>
      <path d="M0 0L10 10L0 20L-10 10Z M60 0L70 10L60 20L50 10Z M0 40L10 50L0 60L-10 50Z M60 40L70 50L60 60L50 50Z" fill="#DC2626" fill-opacity="0.1"/>
      <circle cx="30" cy="30" r="3" fill="#DC2626" fill-opacity="0.1"/>
      <circle cx="0" cy="0" r="3" fill="#DC2626" fill-opacity="0.1"/>
      <circle cx="0" cy="60" r="3" fill="#DC2626" fill-opacity="0.1"/>
      <circle cx="60" cy="0" r="3" fill="#DC2626" fill-opacity="0.1"/>
      <circle cx="60" cy="60" r="3" fill="#DC2626" fill-opacity="0.1"/>
    </pattern>
  </defs>
  <rect width="60" height="60" fill="url(#turkish-pattern)"/>
</svg> 